<svg width="20" height="20" viewBox="0 0 20 20" fill="none" xmlns="http://www.w3.org/2000/svg">
<g clip-path="url(#clip0_235_14837)">
<path d="M12.5002 18.3333C12.0399 18.3333 11.6668 17.9602 11.6668 17.5C11.6668 17.0397 12.0399 16.6666 12.5002 16.6666C12.9604 16.6666 13.3335 17.0397 13.3335 17.5C13.3335 17.9602 12.9604 18.3333 12.5002 18.3333Z" stroke="#E30613" stroke-width="2" stroke-linecap="round" stroke-linejoin="round"/>
<path d="M3.33317 18.3333C2.87293 18.3333 2.49984 17.9602 2.49984 17.5C2.49984 17.0397 2.87293 16.6666 3.33317 16.6666C3.79341 16.6666 4.1665 17.0397 4.1665 17.5C4.1665 17.9602 3.79341 18.3333 3.33317 18.3333Z" stroke="#E30613" stroke-width="2" stroke-linecap="round" stroke-linejoin="round"/>
<path d="M19.1665 0.833252H15.8332L13.5998 11.9916C13.5236 12.3752 13.3149 12.7199 13.0102 12.9652C12.7055 13.2104 12.3243 13.3407 11.9332 13.3333H3.83317C3.44209 13.3407 3.06082 13.2104 2.75613 12.9652C2.45143 12.7199 2.24271 12.3752 2.16651 11.9916L0.833172 4.99992H14.9998" stroke="#E30613" stroke-width="2" stroke-linecap="round" stroke-linejoin="round"/>
</g>
<defs>
<clipPath id="clip0_235_14837">
<rect width="20" height="20" fill="white" transform="matrix(-1 0 0 1 20 0)"/>
</clipPath>
</defs>
</svg>
