<svg width="20" height="20" viewBox="0 0 20 20" fill="none" xmlns="http://www.w3.org/2000/svg">
<path fill-rule="evenodd" clip-rule="evenodd" d="M3.72039 12.887C4.50179 12.1056 5.5616 11.6666 6.66667 11.6666H13.3333C14.4384 11.6666 15.4982 12.1056 16.2796 12.887C17.061 13.6684 17.5 14.7282 17.5 15.8333V17.5C17.5 17.9602 17.1269 18.3333 16.6667 18.3333C16.2064 18.3333 15.8333 17.9602 15.8333 17.5V15.8333C15.8333 15.1703 15.5699 14.5344 15.1011 14.0655C14.6323 13.5967 13.9964 13.3333 13.3333 13.3333H6.66667C6.00363 13.3333 5.36774 13.5967 4.8989 14.0655C4.43006 14.5344 4.16667 15.1703 4.16667 15.8333V17.5C4.16667 17.9602 3.79357 18.3333 3.33333 18.3333C2.8731 18.3333 2.5 17.9602 2.5 17.5V15.8333C2.5 14.7282 2.93899 13.6684 3.72039 12.887Z" fill="#E30613"/>
<path fill-rule="evenodd" clip-rule="evenodd" d="M10.0002 3.33341C8.61945 3.33341 7.50016 4.4527 7.50016 5.83341C7.50016 7.21413 8.61945 8.33341 10.0002 8.33341C11.3809 8.33341 12.5002 7.21413 12.5002 5.83341C12.5002 4.4527 11.3809 3.33341 10.0002 3.33341ZM5.8335 5.83341C5.8335 3.53223 7.69898 1.66675 10.0002 1.66675C12.3013 1.66675 14.1668 3.53223 14.1668 5.83341C14.1668 8.1346 12.3013 10.0001 10.0002 10.0001C7.69898 10.0001 5.8335 8.1346 5.8335 5.83341Z" fill="#E30613"/>
</svg>
